<?xml version="1.0" standalone="no"?>
<!DOCTYPE svg PUBLIC "-//W3C//DTD SVG 20010904//EN"
 "http://www.w3.org/TR/2001/REC-SVG-20010904/DTD/svg10.dtd">
<svg version="1.0" xmlns="http://www.w3.org/2000/svg"
 width="4704.000000pt" height="3752.000000pt" viewBox="0 0 4704.000000 3752.000000"
 preserveAspectRatio="xMidYMid meet">

<g transform="translate(0.000000,3752.000000) scale(0.100000,-0.100000)"
fill="#000000" stroke="none">
<path d="M18225 37503 c-4119 -120 -7995 -1543 -11205 -4114 -836 -670 -1670
-1468 -2376 -2275 -2080 -2377 -3523 -5223 -4199 -8284 -600 -2720 -589 -5562
33 -8290 46 -202 49 -221 44 -321 -6 -159 36 -308 120 -412 23 -30 43 -84 88
-240 414 -1433 991 -2801 1730 -4096 712 -1249 1609 -2467 2568 -3489 110
-117 128 -141 146 -196 57 -167 197 -308 360 -362 43 -14 75 -40 198 -159 728
-707 1584 -1404 2443 -1991 2756 -1883 5932 -2987 9260 -3219 800 -55 1676
-59 2475 -10 2826 174 5513 962 7995 2343 1484 826 2825 1835 4068 3062 l258
255 4787 -6 c2839 -4 4847 -3 4935 2 532 33 909 217 1130 551 120 181 238 447
296 670 58 218 65 281 66 553 0 281 -14 381 -80 580 -43 127 -166 396 -230
501 -131 217 -294 372 -496 474 -89 45 -249 103 -334 120 -121 24 -130 29
-178 94 -64 87 -218 233 -311 293 -143 95 -325 162 -551 205 -108 20 -142 21
-1810 28 -964 4 -2003 3 -2400 -3 -493 -6 -801 -6 -1040 2 -403 13 -765 41
-765 60 0 3 43 87 95 186 365 690 706 1452 983 2195 87 233 232 647 232 661 0
12 -220 11 -338 -2 -627 -68 -1131 -405 -1406 -939 -105 -205 -166 -391 -202
-621 -22 -141 -22 -437 0 -578 43 -274 139 -537 277 -761 38 -62 50 -73 94
-90 50 -20 50 -20 10 -13 l-40 6 29 -39 c16 -21 58 -71 92 -109 l62 -71 -95
-169 c-266 -473 -679 -1126 -1036 -1635 -392 -559 -700 -937 -1258 -1545 -96
-105 -257 -282 -359 -395 l-185 -205 -7800 -5 c-4290 -3 -7854 -2 -7920 3
-479 32 -924 267 -1190 628 -41 56 -59 70 -148 117 -499 265 -812 762 -876
1391 -53 510 108 1037 432 1419 197 233 503 422 782 484 89 20 132 20 7330 23
5441 3 7259 6 7315 15 344 53 652 202 894 431 311 295 496 665 557 1119 17
123 17 428 0 550 -38 275 -148 570 -288 775 l-48 70 -95 32 c-52 17 -140 42
-195 54 l-100 23 -2640 6 c-1452 4 -3831 8 -5286 9 -1784 1 -2681 4 -2750 12
-307 31 -566 119 -788 266 -106 71 -279 237 -356 341 -55 76 -62 82 -159 130
-451 224 -757 687 -852 1287 -23 147 -23 429 0 580 67 425 243 776 528 1051
209 201 448 327 719 379 77 14 857 16 9103 15 4961 0 9021 -1 9022 -3 6 -7
-73 -736 -102 -932 -71 -483 -189 -1122 -298 -1610 -68 -306 -240 -924 -366
-1321 -28 -87 -49 -158 -48 -159 2 -1 1965 -8 4363 -14 4492 -13 4462 -13
4705 25 351 55 634 184 842 382 333 318 575 963 543 1447 -18 277 -65 446
-200 716 -145 288 -264 446 -440 583 -79 62 -161 114 -242 155 -33 16 -51 37
-88 99 -202 340 -491 545 -889 631 -290 63 -510 66 -4606 53 -1730 -5 -3147
-8 -3149 -6 -2 1 4 85 13 186 77 881 88 1899 31 2818 -351 5618 -3219 10777
-7820 14067 -1488 1063 -3148 1914 -4880 2500 -1947 658 -4005 991 -6060 981
-214 -1 -430 -3 -480 -5z m19308 -28300 c-79 -2 -207 -2 -285 0 -79 1 -15 3
142 3 157 0 221 -2 143 -3z"/>
</g>
</svg>
