<?xml version="1.0" standalone="no"?>
<!DOCTYPE svg PUBLIC "-//W3C//DTD SVG 20010904//EN"
 "http://www.w3.org/TR/2001/REC-SVG-20010904/DTD/svg10.dtd">
<svg version="1.0" xmlns="http://www.w3.org/2000/svg"
 width="9851.000000pt" height="3751.000000pt" viewBox="0 0 9851.000000 3751.000000"
 preserveAspectRatio="xMidYMid meet">

<g transform="translate(0.000000,3751.000000) scale(0.100000,-0.100000)"
fill="#000000" stroke="none">
<path d="M18080 37494 c-36 -2 -164 -8 -285 -14 -1904 -94 -3812 -487 -5599
-1154 -3872 -1447 -7169 -4146 -9363 -7666 -1612 -2586 -2562 -5517 -2777
-8570 -35 -490 -41 -678 -41 -1335 0 -657 6 -843 41 -1335 69 -990 221 -1999
447 -2965 26 -114 31 -149 24 -190 -22 -140 30 -344 116 -456 29 -39 46 -83
97 -260 725 -2513 1960 -4828 3649 -6843 203 -242 460 -533 641 -726 117 -124
130 -142 152 -206 57 -164 184 -290 356 -354 46 -17 85 -50 246 -204 1758
-1684 3830 -3016 6066 -3899 1814 -716 3713 -1143 5655 -1271 811 -54 1675
-54 2495 0 4553 295 8844 2247 12070 5488 l164 166 4831 -7 c3824 -5 4858 -3
4964 6 409 39 701 159 921 381 108 108 180 216 275 412 263 542 308 1146 121
1626 -145 374 -301 618 -492 771 -151 122 -301 193 -533 252 l-143 36 -48 64
c-186 253 -469 420 -830 490 l-115 23 -1700 7 c-935 4 -2085 4 -2555 2 -870
-6 -1157 1 -1485 32 -221 22 -206 6 -134 138 91 168 395 780 478 962 268 584
501 1163 702 1748 44 126 79 230 79 233 0 7 -130 4 -270 -6 -593 -45 -1075
-317 -1382 -780 -221 -332 -330 -728 -315 -1145 11 -311 86 -594 229 -865 73
-137 104 -179 152 -202 33 -15 35 -18 14 -15 -16 2 -28 2 -28 -1 0 -9 51 -74
113 -144 l59 -68 -53 -97 c-284 -529 -898 -1479 -1332 -2063 -291 -391 -501
-639 -1102 -1300 -192 -212 -370 -408 -395 -436 l-45 -51 -7845 -6 c-5137 -4
-7876 -3 -7935 3 -386 42 -721 197 -976 450 -58 58 -129 136 -158 174 -47 63
-62 75 -150 121 -375 197 -651 534 -789 967 -108 337 -122 737 -38 1083 70
286 212 563 395 769 220 249 528 431 815 481 79 13 866 15 7295 15 7871 0
7276 -4 7500 55 288 77 516 210 736 430 157 157 242 274 335 460 142 287 200
547 200 897 0 357 -78 663 -242 951 -88 154 -102 167 -223 205 -129 41 -218
59 -352 72 -72 7 -1811 10 -5233 10 -3372 0 -5180 4 -5285 10 -447 29 -784
166 -1060 431 -56 54 -128 135 -161 179 -56 77 -64 83 -157 130 -452 228 -747
663 -852 1255 -9 50 -19 162 -22 250 -9 252 22 470 98 700 196 592 654 1011
1204 1100 78 13 1162 15 8495 15 4623 0 8672 -3 8999 -7 l593 -6 -6 -76 c-31
-374 -95 -865 -166 -1286 -158 -934 -303 -1551 -556 -2374 -47 -150 -83 -275
-81 -277 8 -9 8670 -31 8792 -23 522 34 872 170 1140 443 123 125 196 234 302
446 136 275 201 529 210 827 6 196 -5 313 -47 478 -37 145 -82 254 -187 452
-170 321 -342 504 -601 642 -83 45 -87 48 -137 132 -229 383 -543 576 -1064
657 -95 15 -340 16 -2436 19 -1281 2 -2960 -1 -3730 -5 -770 -4 -1403 -5
-1406 -2 -4 3 0 66 7 140 78 827 93 1893 39 2800 -184 3048 -1088 5954 -2665
8565 -929 1538 -2094 2954 -3430 4170 -1548 1408 -3323 2551 -5235 3370 -1620
694 -3320 1153 -5075 1369 -383 47 -829 87 -1315 117 -165 10 -1524 21 -1675
13z m19473 -28301 c-84 -2 -222 -2 -305 0 -84 1 -16 3 152 3 168 0 236 -2 153
-3z"/>
<path d="M71377 19749 c-323 -31 -519 -168 -593 -414 -27 -90 -26 -268 4 -360
54 -173 162 -288 328 -351 152 -57 150 -57 807 -61 l607 -4 0 -2600 0 -2599
-765 0 c-462 0 -804 -4 -863 -10 -215 -23 -349 -77 -452 -180 -113 -112 -160
-233 -160 -410 0 -300 160 -497 465 -572 l90 -22 2225 -4 c2323 -3 2329 -3
2483 39 210 58 345 187 403 384 22 74 24 245 5 325 -50 207 -202 354 -423 409
-145 37 -246 41 -1038 41 l-770 0 0 3200 0 3200 -1132 -1 c-623 -1 -1172 -5
-1221 -10z"/>
<path d="M95904 19749 c-213 -20 -353 -76 -460 -183 -114 -115 -159 -231 -158
-416 1 -161 46 -286 142 -391 131 -143 323 -199 680 -199 l182 0 0 -746 c0
-410 -3 -743 -7 -741 -5 3 -62 37 -128 77 -417 251 -856 406 -1322 466 -173
22 -549 22 -733 0 -687 -83 -1246 -354 -1735 -841 -252 -250 -417 -476 -566
-770 -159 -315 -246 -616 -285 -985 -19 -185 -14 -575 10 -735 89 -592 321
-1059 731 -1471 161 -161 246 -232 418 -348 454 -306 975 -464 1629 -496 672
-32 1259 95 1845 399 74 39 137 71 139 71 2 0 4 -63 4 -140 l0 -140 778 0
c843 0 895 3 1054 56 192 63 322 207 363 399 44 208 -12 420 -146 554 -134
134 -342 191 -699 191 l-150 0 0 3200 0 3200 -752 -1 c-414 -1 -789 -5 -834
-10z m-1234 -3324 c741 -46 1421 -634 1578 -1366 54 -249 56 -506 6 -734 -103
-469 -473 -866 -970 -1038 -233 -81 -478 -117 -794 -117 -600 0 -1025 143
-1348 454 -179 173 -294 350 -366 566 -106 316 -100 717 16 1055 169 496 615
934 1121 1099 183 61 452 100 612 90 28 -2 93 -6 145 -9z"/>
<path d="M51345 19434 c-355 -36 -629 -96 -888 -194 -805 -303 -1375 -811
-1757 -1565 -205 -403 -320 -787 -376 -1255 -22 -180 -32 -1170 -15 -1429 38
-570 209 -1064 535 -1546 241 -357 540 -661 852 -868 632 -418 1528 -635 2426
-589 625 33 1163 164 1628 397 441 221 819 578 937 883 21 55 27 89 31 187 4
110 2 126 -23 200 -99 299 -409 479 -703 410 -125 -30 -190 -75 -410 -287
-319 -307 -491 -408 -845 -498 -463 -117 -1087 -128 -1557 -29 -455 97 -810
281 -1102 572 -313 311 -489 658 -555 1094 -16 103 -18 191 -18 688 0 593 4
660 46 883 70 362 214 667 467 982 154 192 371 384 553 491 529 309 1198 362
1844 147 300 -99 526 -229 702 -402 126 -125 169 -206 209 -391 80 -374 159
-523 321 -608 128 -67 339 -86 476 -43 196 62 324 207 377 428 34 144 39 260
40 853 0 736 -11 849 -97 1025 -62 127 -191 230 -338 271 -82 23 -256 18 -342
-9 -115 -36 -240 -129 -330 -245 l-22 -28 -107 62 c-357 206 -766 336 -1244
395 -110 14 -629 27 -715 18z"/>
<path d="M65700 19430 c-761 -72 -1486 -406 -2005 -925 -472 -472 -814 -1148
-935 -1849 -47 -277 -52 -374 -47 -1116 4 -781 5 -794 87 -1115 83 -327 226
-647 420 -938 400 -603 840 -964 1490 -1220 422 -167 831 -251 1352 -279 757
-40 1512 106 2108 408 314 159 595 385 777 624 244 322 239 650 -13 890 -129
122 -285 180 -454 167 -166 -12 -249 -62 -495 -298 -199 -189 -342 -300 -476
-368 -471 -240 -1388 -299 -2043 -131 -184 47 -283 83 -445 160 -220 106 -391
231 -572 416 -309 318 -482 684 -530 1121 -7 64 -9 312 -6 708 5 665 5 673 68
925 76 307 217 584 436 855 97 120 290 309 393 386 337 250 776 389 1229 389
589 0 1265 -261 1542 -595 72 -86 116 -184 145 -322 63 -292 125 -446 220
-540 152 -152 453 -189 672 -81 178 87 280 266 312 544 13 120 13 1286 -1
1410 -23 213 -76 343 -178 444 -184 181 -485 212 -714 73 -59 -36 -155 -123
-199 -181 l-24 -33 -80 47 c-347 206 -801 354 -1264 409 -158 19 -627 28 -770
15z"/>
<path d="M80120 17630 c-620 -43 -1262 -282 -1750 -651 -356 -269 -605 -568
-811 -973 -153 -299 -242 -568 -296 -891 -26 -158 -26 -602 0 -760 111 -665
449 -1254 954 -1660 476 -383 1088 -632 1749 -710 165 -20 543 -23 709 -6 436
45 839 163 1235 360 576 287 977 671 1242 1186 161 314 254 618 289 943 15
143 6 509 -16 645 -81 511 -299 1008 -611 1397 -414 517 -1135 929 -1869 1070
-245 46 -579 67 -825 50z m485 -1211 c418 -43 794 -216 1094 -504 277 -267
447 -560 523 -902 19 -82 22 -129 22 -288 0 -174 -3 -198 -27 -288 -65 -243
-184 -441 -400 -664 -324 -335 -707 -527 -1171 -588 -152 -20 -449 -20 -603 0
-473 61 -854 256 -1193 612 -126 132 -203 237 -275 375 -105 203 -141 370
-132 607 15 356 138 669 379 956 443 530 1041 760 1783 684z"/>
<path d="M84716 17469 c-380 -40 -587 -231 -604 -555 -14 -288 138 -513 398
-588 111 -32 170 -39 385 -45 l220 -6 6 -1425 c6 -1547 3 -1462 60 -1669 61
-219 197 -445 387 -642 303 -316 663 -494 1122 -555 150 -20 460 -22 635 -4
438 43 903 170 1408 385 l147 63 0 -135 0 -134 698 4 c735 4 719 3 874 53 191
62 322 207 363 399 58 276 -59 546 -285 657 -98 48 -168 65 -317 80 l-123 12
0 2058 0 2058 -859 0 c-520 0 -899 -4 -960 -10 -324 -34 -513 -157 -593 -387
-31 -91 -34 -307 -4 -393 63 -185 191 -309 376 -364 118 -36 237 -46 538 -46
l292 0 0 -1227 0 -1228 -43 -25 c-481 -278 -721 -396 -996 -491 -130 -45 -299
-89 -441 -116 -73 -13 -147 -17 -320 -17 -217 0 -228 1 -315 28 -124 38 -179
69 -261 151 -79 79 -120 152 -156 280 l-23 80 -3 1883 -2 1882 -763 -1 c-419
-1 -798 -5 -841 -10z"/>
<path d="M56230 15565 l0 -545 2510 0 2510 0 0 545 0 545 -2510 0 -2510 0 0
-545z"/>
</g>
</svg>
