<?xml version="1.0" standalone="no"?>
<!DOCTYPE svg PUBLIC "-//W3C//DTD SVG 20010904//EN"
 "http://www.w3.org/TR/2001/REC-SVG-20010904/DTD/svg10.dtd">
<svg version="1.0" xmlns="http://www.w3.org/2000/svg"
 width="9850.000000pt" height="3751.000000pt" viewBox="0 0 9850.000000 3751.000000"
 preserveAspectRatio="xMidYMid meet">

<g transform="translate(0.000000,3751.000000) scale(0.100000,-0.100000)"
fill="#000000" stroke="none">
<path d="M18075 37493 c-33 -1 -161 -7 -285 -13 -3197 -151 -6376 -1162 -9095
-2895 -2558 -1629 -4691 -3858 -6198 -6476 -1878 -3262 -2721 -6976 -2442
-10769 68 -918 215 -1895 419 -2785 49 -216 52 -236 48 -332 -7 -162 36 -314
119 -423 23 -30 42 -73 58 -130 47 -175 182 -614 266 -865 843 -2521 2207
-4820 4038 -6802 135 -147 152 -169 173 -230 41 -118 130 -229 239 -298 17
-10 62 -33 102 -49 65 -28 93 -52 305 -252 270 -256 392 -367 613 -560 1363
-1188 2897 -2177 4540 -2926 2053 -937 4251 -1490 6525 -1642 790 -53 1683
-53 2495 0 3001 195 5877 1099 8470 2662 1092 659 2099 1417 3050 2296 77 72
268 257 425 413 l285 283 4835 -7 c3722 -4 4864 -3 4960 6 423 41 725 169 945
402 227 240 420 700 476 1133 15 118 7 464 -14 576 -19 102 -59 241 -94 330
-54 136 -182 389 -242 478 -146 217 -346 377 -585 467 -68 26 -286 85 -315 85
-9 0 -36 28 -61 63 -173 237 -413 394 -724 472 -232 58 -94 55 -2853 56 -1396
1 -2628 5 -2738 10 -240 11 -547 38 -558 49 -5 4 37 95 94 201 321 604 664
1361 921 2034 110 287 288 794 288 818 0 7 -52 8 -152 3 -349 -16 -562 -67
-833 -201 -487 -241 -826 -695 -940 -1260 -92 -456 -25 -925 190 -1331 78
-149 104 -184 150 -206 30 -14 33 -17 13 -13 -16 3 -28 2 -28 -1 0 -11 68 -94
127 -154 l53 -56 -89 -159 c-398 -716 -1055 -1707 -1519 -2290 -242 -303 -380
-463 -892 -1025 -168 -185 -333 -367 -367 -406 l-63 -71 -7850 -6 c-7008 -6
-7863 -5 -7968 8 -463 61 -835 273 -1102 628 -35 47 -58 66 -119 97 -351 176
-619 476 -771 860 -245 617 -158 1350 222 1861 225 304 581 537 905 594 75 13
979 15 7292 15 7580 0 7260 -2 7444 39 649 146 1150 679 1292 1374 105 516 13
1051 -253 1463 l-52 81 -92 31 c-109 36 -154 49 -263 70 -72 14 -617 16 -5390
22 -4942 5 -5317 7 -5414 23 -294 48 -508 129 -716 271 -106 72 -259 220 -340
329 -54 72 -66 82 -145 122 -374 188 -640 511 -784 953 -166 511 -130 1038
104 1507 87 174 176 300 305 430 238 241 511 382 820 425 58 8 2512 10 9067 8
4942 -2 8988 -5 8991 -8 17 -20 -80 -826 -154 -1280 -152 -932 -341 -1736
-598 -2545 -33 -104 -58 -191 -57 -192 8 -8 8678 -29 8791 -22 506 33 882 175
1135 428 89 89 146 167 236 322 302 519 372 1101 193 1593 -43 120 -176 377
-256 500 -123 184 -302 348 -494 450 -59 32 -90 54 -98 73 -7 15 -36 63 -65
108 -222 340 -520 518 -1001 598 l-130 21 -2335 3 c-1284 2 -2965 -1 -3735 -5
-770 -4 -1402 -6 -1403 -5 -2 1 6 118 17 260 71 877 82 1815 31 2673 -247
4154 -1862 8094 -4601 11220 -379 433 -1035 1106 -1424 1461 -1620 1479 -3392
2621 -5370 3461 -2073 881 -4264 1371 -6560 1468 -209 9 -1274 11 -1440 3z
m19468 -28300 c-84 -2 -222 -2 -305 0 -84 1 -16 3 152 3 168 0 236 -2 153 -3z"/>
<path d="M56220 15565 l0 -545 2510 0 2510 0 0 545 0 545 -2510 0 -2510 0 0
-545z"/>
</g>
</svg>
